<svg xmlns="http://www.w3.org/2000/svg" viewBox="0 0 120 134" width="120" height="134"><polygon points="60.0,12.0 107.6,39.5 107.6,94.5 60.0,122.0 12.4,94.5 12.4,39.5" fill="none" stroke="#10B981" stroke-width="9" stroke-linejoin="round" stroke-linecap="round"/><g stroke="#10B981" stroke-width="3.2"><line x1="34.7" y1="41.7" x2="85.3" y2="41.7"/><line x1="85.3" y1="41.7" x2="85.3" y2="92.3"/><line x1="85.3" y1="92.3" x2="34.7" y2="92.3"/><line x1="34.7" y1="92.3" x2="34.7" y2="41.7"/><line x1="60" y1="67" x2="34.7" y2="41.7"/><line x1="60" y1="67" x2="85.3" y2="41.7"/><line x1="60" y1="67" x2="85.3" y2="92.3"/><line x1="60" y1="67" x2="34.7" y2="92.3"/></g><circle cx="34.7" cy="41.7" r="6.0" fill="#10B981"/><circle cx="85.3" cy="41.7" r="6.0" fill="#10B981"/><circle cx="85.3" cy="92.3" r="6.0" fill="#10B981"/><circle cx="34.7" cy="92.3" r="6.0" fill="#10B981"/><circle cx="60" cy="67" r="8.1" fill="#34D399"/></svg>