<?xml version="1.0" encoding="UTF-8"?>
<!DOCTYPE svg PUBLIC "-//W3C//DTD SVG 1.1//EN" "http://www.w3.org/Graphics/SVG/1.1/DTD/svg11.dtd">
<!-- Creator: CorelDRAW -->
<svg xmlns="http://www.w3.org/2000/svg" xml:space="preserve" width="41.8209mm" height="41.8209mm" version="1.1" style="shape-rendering:geometricPrecision; text-rendering:geometricPrecision; image-rendering:optimizeQuality; fill-rule:evenodd; clip-rule:evenodd"
viewBox="0 0 1212.87 1212.87"
 xmlns:xlink="http://www.w3.org/1999/xlink"
 xmlns:xodm="http://www.corel.com/coreldraw/odm/2003">
 <defs>
  <style type="text/css">
   <![CDATA[
    .fil1 {fill:#FEFEFE}
    .fil0 {fill:#00A6C2}
    .fil2 {fill:#FACD2A}
   ]]>
  </style>
 </defs>
 <g id="Layer_x0020_1">
  <metadata id="CorelCorpID_0Corel-Layer"/>
  <path class="fil0" d="M196.85 0l819.17 0c108.27,0 196.85,88.58 196.85,196.85l0 819.17c0,108.27 -88.58,196.85 -196.85,196.85l-819.17 0c-108.27,0 -196.85,-88.58 -196.85,-196.85l0 -819.17c0,-108.27 88.58,-196.85 196.85,-196.85z"/>
  <path class="fil1" d="M857.69 569.63l-0.01 0.02c18.01,35.19 28.57,74.42 28.57,115.79 0,151.92 -123.15,275.08 -275.08,275.08 -5.11,0 -10.18,-0.16 -15.22,-0.44 18.34,-8.87 31.01,-27.66 31.01,-49.4 0,-18.62 -9.28,-35.07 -23.46,-44.98 2.55,0.1 5.11,0.16 7.68,0.16 99.65,0 180.42,-80.78 180.42,-180.42 0,-5.88 -0.3,-11.7 -0.86,-17.44 -44.03,40.78 -103.89,64.82 -184.39,64.82 -60.08,0 -122.17,-25.26 -172.12,-67.01 -1.28,-0.99 -2.63,-2.18 -4.01,-3.44 -3.56,-3.08 -7.07,-6.24 -10.5,-9.5l-0.07 -0.06 -0.15 -0.14c-13.45,-12.78 -25.81,-26.83 -36.75,-41.93 -3.94,-5.32 -7.14,-10.09 -9.84,-14.47l-0.44 -0.71c-5.88,-9.28 -11.21,-18.91 -15.96,-28.84l-0.15 -0.27 0.01 -0.02c-15.9,-33.34 -25.11,-70.08 -25.11,-108.68 0,-147.67 116.37,-268.14 262.41,-274.75 -18.05,7.99 -30.65,26.07 -30.65,47.08 0,21.5 13.18,39.91 31.89,47.61 -94.31,5.9 -168.99,84.25 -168.99,180.06 0,3.56 0.11,7.09 0.32,10.61 44.8,-37.57 105.42,-58 184.93,-58 75.28,0 153.45,39.45 207.13,101.23l0.23 0.24c10.23,10.88 21.91,28.11 24.14,31.94l0.1 0.18c5.35,8.2 10.29,16.67 14.76,25.4l0.16 0.28zm-389.2 3.51c33.54,39.73 83.55,65.03 137.85,65.03 60.36,0 112.16,-24.87 144.58,-65.92 -33.5,-41 -84.33,-67.24 -139.75,-67.24 -60.31,0 -111.08,26.12 -142.68,68.13z"/>
  <path class="fil2" d="M561.2 863.46c26.03,0 47.13,21.1 47.13,47.12 0,26.03 -21.1,47.13 -47.13,47.13 -26.03,0 -47.13,-21.1 -47.13,-47.13 0,-26.02 21.1,-47.12 47.13,-47.12z"/>
  <path class="fil2" d="M628.28 182.86c25.56,0 46.27,20.72 46.27,46.27 0,25.56 -20.71,46.28 -46.27,46.28 -25.55,0 -46.27,-20.72 -46.27,-46.28 0,-25.55 20.72,-46.27 46.27,-46.27z"/>
 </g>
</svg>
